<!-- Uploaded to: SVG Repo, www.svgrepo.com, Transformed by: SVG Repo Mixer Tools -->
<svg fill="#39454D" version="1.1" id="Capa_1" xmlns="http://www.w3.org/2000/svg" width="800px"
    height="800px" viewBox="0 0 528.633 528.632" xml:space="preserve">

<g id="SVGRepo_bgCarrier" stroke-width="0" />

    <g id="SVGRepo_tracerCarrier" stroke-linecap="round" stroke-linejoin="round" />

    <g id="SVGRepo_iconCarrier"> <g> <g> <path
        d="M264.317,326.235c-13.739,0-26.659-5.349-36.371-15.067L0.692,83.914v356.863c0,16.897,13.703,30.601,30.6,30.601h466.044 c16.896,0,30.6-13.703,30.6-30.601V83.92L300.693,311.167C290.977,320.886,278.057,326.235,264.317,326.235z" />
        <path
            d="M0.692,57.255H0l0.698,0.697l240.229,240.234c6.463,6.457,14.927,9.688,23.391,9.688c8.464,0,16.933-3.231,23.39-9.688 L527.936,57.953l0.697-0.697h-0.697H0.692L0.692,57.255z" /> </g> </g> </g>

</svg>